
<svg xmlns="http://www.w3.org/2000/svg" id="a" viewBox="0 0 442.26 442.26"><defs><style>.b{fill:#ffd24c;}</style></defs><polygon class="b" points="139.85 372.14 422.59 208.9 422.59 70.12 362.5 104.82 79.76 268.06 19.67 302.75 19.67 302.75 139.85 372.14 139.85 372.14"></polygon><path d="M359.79,299.16V111.78c0-12.59-10.21-22.8-22.8-22.8H105.27c-12.59,0-22.8,10.21-22.8,22.8v187.38c0,2.4-1.94,4.34-4.34,4.34h-4.47c-2.4,0-4.34,1.94-4.34,4.34v41.11c0,2.4,1.94,4.34,4.34,4.34H368.6c2.4,0,4.34-1.94,4.34-4.34v-41.11c0-2.4-1.94-4.34-4.34-4.34h-4.47c-2.4,0-4.34-1.94-4.34-4.34Zm-17.76-188.08v125.15c0,2.4-1.94,4.34-4.34,4.34h0c-1.85,0-3.52-1.16-4.11-2.92-3.74-11.18-5.83-22.77-6.23-34.58-.08-2.32-2-4.15-4.33-4.15h-9.09c-2.46,0-4.42,2.04-4.35,4.5,.38,11.97,2.28,23.74,5.66,35.16,.29,.99-.44,1.99-1.47,1.99h0c-.43,0-.84-.17-1.14-.48-18.95-20.36-44.67-87.79-58.34-127.6-.97-2.82,1.13-5.74,4.11-5.74h79.28c2.4,0,4.34,1.94,4.34,4.34Zm0,151.59v36.5c0,2.4-1.94,4.34-4.34,4.34h-20.67c-2.48,0-4.48-2.08-4.34-4.56,.53-9.35,1.45-18.69,2.77-27.92l1.28-8.97c.31-2.14,2.14-3.72,4.3-3.72h16.66c2.4,0,4.34,1.94,4.34,4.34ZM230.52,106.74c1.86,0,3.52,1.18,4.11,2.95,4.03,12.01,11.76,34.35,21.07,57.91,16.73,42.35,30.9,69.85,43.12,83.64,.83,.94,1.2,2.21,1.02,3.45l-1.97,13.81c-1.46,10.2-2.46,20.53-3,30.87-.12,2.31-2.01,4.13-4.32,4.13H151.72c-2.31,0-4.2-1.81-4.32-4.12-.55-10.34-1.54-20.66-3-30.87l-1.97-13.81c-.18-1.25,.18-2.51,1.02-3.45,12.22-13.79,26.39-41.3,43.12-83.64,9.31-23.56,17.04-45.91,21.06-57.91,.59-1.77,2.25-2.95,4.11-2.95h18.78Zm-125.94,0h79.28c2.98,0,5.07,2.92,4.11,5.74-13.67,39.81-39.39,107.24-58.34,127.6-.29,.32-.7,.48-1.14,.48h0c-1.04,0-1.77-1-1.47-1.99,3.38-11.43,5.28-23.19,5.66-35.16,.08-2.46-1.89-4.5-4.35-4.5h-9.09c-2.32,0-4.25,1.83-4.33,4.15-.4,11.81-2.49,23.4-6.23,34.58-.59,1.75-2.26,2.92-4.11,2.92h0c-2.4,0-4.34-1.94-4.34-4.34V111.07c0-2.4,1.94-4.34,4.34-4.34Zm0,151.59h16.66c2.16,0,3.99,1.59,4.3,3.73l1.28,8.97c1.32,9.23,2.24,18.57,2.77,27.91,.14,2.48-1.86,4.56-4.34,4.56h-20.67c-2.4,0-4.34-1.94-4.34-4.34v-36.49c0-2.4,1.94-4.34,4.34-4.34Zm245.82,76.75H91.87c-2.4,0-4.34-1.94-4.34-4.34v-4.69c0-2.4,1.94-4.34,4.34-4.34H350.39c2.4,0,4.34,1.94,4.34,4.34v4.69c0,2.4-1.94,4.34-4.34,4.34Zm4.34,0"></path></svg>