
<svg xmlns="http://www.w3.org/2000/svg" id="a" viewBox="0 0 442.26 442.26"><defs><style>.b{fill:#ffd24c;}</style></defs><polygon class="b" points="139.85 372.14 422.59 208.9 422.59 70.12 362.5 104.82 79.76 268.06 19.67 302.75 19.67 302.75 139.85 372.14 139.85 372.14"></polygon><g><path d="M337.51,83.2H104.76c-11.88,0-21.55,9.67-21.55,21.55v173.24c0,11.88,9.67,21.55,21.55,21.55h88.72l-10.84,21.68h-7.6c-17.82,0-32.33,14.5-32.33,32.33v.11c0,2.97,2.41,5.39,5.39,5.39h146.06c2.97,0,5.39-2.41,5.39-5.39v-.11c0-17.82-14.5-32.33-32.33-32.33h-7.6l-10.84-21.68h88.72c11.88,0,21.55-9.67,21.55-21.55V104.76c0-11.88-9.67-21.55-21.55-21.55h0Zm-232.75,10.78h232.75c5.94,0,10.78,4.83,10.78,10.78v156.97h-10.86V110.23c0-2.97-2.41-5.39-5.39-5.39H110.23c-2.97,0-5.39,2.41-5.39,5.39v151.5h-10.86V104.76c0-5.94,4.83-10.78,10.78-10.78h0Zm10.86,167.75V115.62h211.03v146.11H115.62Zm172.5,86.55H154.14c2.36-9.34,10.83-16.27,20.9-16.27h92.19c10.06,0,18.54,6.93,20.9,16.27h0Zm-40.55-27.05h-52.89l10.84-21.68h31.21l10.84,21.68Zm89.93-32.46H104.76c-5.94,0-10.78-4.83-10.78-10.78v-5.5h254.3v5.5c0,5.94-4.83,10.78-10.78,10.78h0Zm0,0"></path><path d="M256.29,126.48h-124.42c-2.98,0-5.39,2.41-5.39,5.39v113.6c0,2.97,2.41,5.39,5.39,5.39h124.42c2.97,0,5.39-2.41,5.39-5.39v-113.6c0-2.98-2.41-5.39-5.39-5.39h0Zm-5.39,10.78v78.81l-25.85-23.3c-2.27-2.04-5.69-1.77-7.63,.42l-14.48,16.28-28.91-32.5c-2.14-2.41-5.91-2.41-8.05,0l-28.73,32.3v-72.02h113.65Zm-113.65,88.23l32.76-36.82,45.74,51.42h-78.5v-14.6Zm92.92,14.6l-20.02-22.5,11.71-13.17,29.03,26.17v9.51h-20.73Zm0,0"></path><path d="M207.61,180.53c8.94,0,16.21-7.27,16.21-16.2s-7.27-16.21-16.21-16.21-16.21,7.27-16.21,16.21,7.27,16.2,16.21,16.2h0Zm0-21.64c3,0,5.43,2.44,5.43,5.43s-2.44,5.43-5.43,5.43-5.43-2.44-5.43-5.43,2.44-5.43,5.43-5.43h0Zm0,0"></path><path d="M315.21,161.92l-16.23-32.46c-1.98-3.96-7.65-3.97-9.64,0l-16.23,32.46c-.38,.76-.57,1.63-.57,2.41v75.76c0,5.94,4.84,10.78,10.78,10.78h21.68c5.94,0,10.78-4.83,10.78-10.78v-75.76c0-.83-.19-1.66-.57-2.41h0Zm-31.89,7.8h21.69v48.73h-21.69v-48.73Zm10.84-25.8l7.51,15.02h-15.02l7.51-15.02Zm-10.84,96.17v-10.86h21.69v10.86c-33.42,0-16.92,0-21.69,0h0Zm0,0"></path></g></svg>