
<svg xmlns="http://www.w3.org/2000/svg" id="a" viewBox="0 0 442.26 442.26"><defs><style>.b{fill:#ffd24c;}</style></defs><polygon class="b" points="139.85 372.14 422.59 208.9 422.59 70.12 362.5 104.82 79.76 268.06 19.67 302.75 19.67 302.75 139.85 372.14 139.85 372.14"></polygon><g><path d="M296.83,320.45H145.43c0-15.05,12.2-27.25,27.25-27.25h96.9c15.05,0,27.25,12.2,27.25,27.25h0Zm0,0"></path><path d="M329.89,358h-8.83v-4.24c0-8.36-6.78-15.14-15.14-15.14H136.34c-8.36,0-15.14,6.78-15.14,15.14v4.24h-8.83c-4.89,0-9.1,3.76-9.33,8.65-.25,5.22,3.91,9.52,9.07,9.52h218.03c5.16,0,9.32-4.31,9.07-9.52-.23-4.89-4.44-8.65-9.33-8.65h0Zm0,0"></path><path d="M245.88,214.49l-24.75-13.01-24.75,13.01c-3.9,2.05-8.28,3.13-12.68,3.13-.23,0-.46,0-.69-.02l-10.25,57.42h96.76l-10.25-57.42c-.23,0-.46,.02-.69,.02-4.4,0-8.78-1.09-12.68-3.13h0Zm0,0"></path><path d="M258.56,199.46c-1.45,0-2.9-.35-4.23-1.04l-33.2-17.46-33.2,17.46c-3.06,1.61-6.77,1.34-9.57-.69-2.8-2.03-4.2-5.48-3.61-8.89l6.34-36.97-26.86-26.18c-2.48-2.41-3.37-6.02-2.3-9.31,1.07-3.29,3.91-5.69,7.33-6.18l37.12-5.39,16.6-33.64c1.53-3.1,4.69-5.07,8.15-5.07s6.61,1.96,8.15,5.06l16.6,33.64,37.12,5.4c3.42,.5,6.26,2.89,7.33,6.18,1.07,3.29,.18,6.9-2.3,9.31l-26.86,26.18,6.34,36.97c.58,3.41-.82,6.85-3.61,8.89-1.58,1.15-3.46,1.74-5.34,1.74h0Zm0,0"></path></g></svg>