
<svg xmlns="http://www.w3.org/2000/svg" id="Layer_1" viewBox="0 0 442.26 442.26"><defs><style>.cls-1{fill:#ffd24d;}.cls-2{fill:#221f20;fill-rule:evenodd;}</style></defs><polygon class="cls-1" points="139.85 371.25 422.59 208.01 422.59 69.23 362.5 103.93 79.76 267.17 19.67 301.86 19.67 301.86 139.85 371.25 139.85 371.25"></polygon><path class="cls-2" d="M112.7,192.62h1.72l.55,.91c4.77,7.95,11.55,14.56,19.63,19.14,7.8,4.41,16.81,6.93,26.43,6.93s18.61-2.52,26.41-6.93c8.08-4.58,14.86-11.19,19.63-19.14l.55-.91h14.81l.47,1.15c3.07,7.69,8.39,14.24,15.15,18.8,6.55,4.45,14.48,7.03,23,7.03s16.44-2.57,23-7.03c6.74-4.56,12.08-11.11,15.15-18.8l.48-1.15h4.54c1.53,0,2.91,.62,3.93,1.63,1,1,1.63,2.4,1.63,3.94v31.83l37.24-12.99c.95-.34,2.01,.17,2.35,1.13,.08,.21,.1,.42,.1,.61h.02v64.31c0,1.04-.84,1.85-1.86,1.85-.26,0-.53-.05-.76-.15l-37.09-12.93v31.83c0,1.53-.63,2.92-1.65,3.92v.02h0c-1,1-2.4,1.63-3.92,1.63h-74.31v14.45c0,1.02-.81,1.86-1.85,1.86h-42.3c-1.02,0-1.86-.83-1.86-1.86v-14.45H112.7c-1.53,0-2.93-.63-3.94-1.63-1-1-1.63-2.4-1.63-3.94v-79.57l-11.78,4.11c-.23,.1-.48,.15-.74,.15-1.02,0-1.86-.83-1.86-1.86v-23.23h0c0-.19,.04-.4,.12-.61,.34-.97,1.38-1.48,2.35-1.14l11.91,4.15v-7.5c0-1.53,.62-2.91,1.63-3.94h0c1.03-1,2.41-1.63,3.94-1.63h0Zm148.36-50.7c10.11,0,19.28,4.09,25.9,10.72,6.63,6.63,10.72,15.79,10.72,25.9s-4.09,19.27-10.72,25.9c-6.62,6.63-15.79,10.72-25.9,10.72s-19.27-4.09-25.9-10.72c-6.63-6.63-10.73-15.79-10.73-25.9s4.11-19.27,10.73-25.9c6.63-6.63,15.79-10.72,25.9-10.72h0Zm13.08,23.53c-3.35-3.33-7.97-5.41-13.08-5.41s-9.73,2.08-13.08,5.41c-3.33,3.35-5.41,7.97-5.41,13.08s2.08,9.73,5.41,13.09c3.35,3.33,7.97,5.41,13.08,5.41s9.73-2.08,13.08-5.41c3.33-3.35,5.41-7.97,5.41-13.09s-2.08-9.73-5.41-13.08h0Zm-113.1-48.73c13.57,0,25.9,5.51,34.8,14.41,8.9,8.92,14.41,21.22,14.41,34.82s-5.51,25.88-14.41,34.8c-8.9,8.9-21.22,14.41-34.8,14.41s-25.9-5.51-34.82-14.41c-8.9-8.92-14.41-21.23-14.41-34.8s5.51-25.9,14.41-34.82c8.92-8.9,21.23-14.41,34.82-14.41h0Zm18.27,30.94c-4.68-4.68-11.13-7.58-18.27-7.58s-13.61,2.9-18.29,7.58c-4.67,4.67-7.57,11.13-7.57,18.29s2.9,13.59,7.57,18.27c4.68,4.69,11.13,7.59,18.29,7.59s13.59-2.9,18.27-7.59c4.7-4.68,7.59-11.13,7.59-18.27s-2.9-13.61-7.59-18.29h0Z"></path></svg>